<svg width="140.000000" height="24.000000" viewBox="0 0 140 24" fill="none" xmlns="http://www.w3.org/2000/svg" xmlns:xlink="http://www.w3.org/1999/xlink">
	<desc>
			Created with Pixso.
	</desc>
	<defs>
		<clipPath id="clip0_35">
			<rect id="Frame" width="24.000000" height="24.000000" fill="white" fill-opacity="0"/>
		</clipPath>
		<clipPath id="clip0_37">
			<rect id="Frame" width="24.000000" height="24.000000" transform="translate(29.000000 0.000000)" fill="white" fill-opacity="0"/>
		</clipPath>
		<clipPath id="clip0_39">
			<rect id="Frame" width="24.000000" height="24.000000" transform="translate(58.000000 0.000000)" fill="white" fill-opacity="0"/>
		</clipPath>
		<clipPath id="clip0_41">
			<rect id="Frame" width="24.000000" height="24.000000" transform="translate(87.000000 0.000000)" fill="white" fill-opacity="0"/>
		</clipPath>
		<clipPath id="clip0_43">
			<rect id="Frame" width="24.000000" height="24.000000" transform="translate(116.000000 0.000000)" fill="white" fill-opacity="0"/>
		</clipPath>
	</defs>
	<rect id="Frame" width="24.000000" height="24.000000" fill="#FFFFFF" fill-opacity="0"/>
	<g clip-path="url(#clip0_35)">
		<path id="Vector" d="M10.78 3.21C11.23 2.13 12.76 2.13 13.21 3.21L15.29 8.21L20.69 8.65C21.86 8.74 22.33 10.19 21.44 10.95L17.33 14.48L18.58 19.75C18.85 20.89 17.62 21.78 16.62 21.18L12 18.35L7.37 21.18C6.37 21.78 5.14 20.89 5.41 19.75L6.67 14.48L2.55 10.95C1.66 10.19 2.13 8.74 3.3 8.65L8.7 8.21L10.78 3.21L10.78 3.21Z" fill="#FF8C47" fill-opacity="1.000000" fill-rule="evenodd"/>
	</g>
	<rect id="Frame" width="24.000000" height="24.000000" transform="translate(29.000000 0.000000)" fill="#FFFFFF" fill-opacity="0"/>
	<g clip-path="url(#clip0_37)">
		<path id="Vector" d="M39.78 3.21C40.23 2.13 41.76 2.13 42.21 3.21L44.29 8.21L49.69 8.65C50.86 8.74 51.33 10.19 50.44 10.95L46.33 14.48L47.58 19.75C47.85 20.89 46.62 21.78 45.62 21.18L41 18.35L36.37 21.18C35.37 21.78 34.14 20.89 34.41 19.75L35.66 14.48L31.55 10.95C30.66 10.19 31.13 8.74 32.3 8.65L37.7 8.21L39.78 3.21L39.78 3.21Z" fill="#FF8C47" fill-opacity="1.000000" fill-rule="evenodd"/>
	</g>
	<rect id="Frame" width="24.000000" height="24.000000" transform="translate(58.000000 0.000000)" fill="#FFFFFF" fill-opacity="0"/>
	<g clip-path="url(#clip0_39)">
		<path id="Vector" d="M68.78 3.21C69.23 2.13 70.76 2.13 71.21 3.21L73.29 8.21L78.69 8.65C79.86 8.74 80.33 10.19 79.44 10.95L75.33 14.48L76.58 19.75C76.85 20.89 75.62 21.78 74.62 21.18L70 18.35L65.37 21.18C64.37 21.78 63.14 20.89 63.41 19.75L64.67 14.48L60.55 10.95C59.66 10.19 60.13 8.74 61.3 8.65L66.7 8.21L68.78 3.21L68.78 3.21Z" fill="#FF8C47" fill-opacity="1.000000" fill-rule="evenodd"/>
	</g>
	<rect id="Frame" width="24.000000" height="24.000000" transform="translate(87.000000 0.000000)" fill="#FFFFFF" fill-opacity="0"/>
	<g clip-path="url(#clip0_41)">
		<path id="Vector" d="M97.78 3.21C98.23 2.13 99.76 2.13 100.21 3.21L102.29 8.21L107.69 8.65C108.86 8.74 109.33 10.19 108.44 10.95L104.33 14.48L105.58 19.75C105.85 20.89 104.62 21.78 103.62 21.18L99 18.35L94.37 21.18C93.37 21.78 92.14 20.89 92.41 19.75L93.67 14.48L89.55 10.95C88.66 10.19 89.13 8.74 90.3 8.65L95.7 8.21L97.78 3.21L97.78 3.21Z" fill="#FF8C47" fill-opacity="1.000000" fill-rule="evenodd"/>
	</g>
	<rect id="Frame" width="24.000000" height="24.000000" transform="translate(116.000000 0.000000)" fill="#FFFFFF" fill-opacity="0"/>
	<g clip-path="url(#clip0_43)">
		<path id="Vector" d="M126.78 3.21C127.23 2.13 128.76 2.13 129.21 3.21L131.29 8.21L136.69 8.65C137.86 8.74 138.33 10.19 137.44 10.95L133.33 14.48L134.58 19.75C134.85 20.89 133.62 21.78 132.62 21.18L128 18.35L123.37 21.18C122.37 21.78 121.14 20.89 121.41 19.75L122.67 14.48L118.55 10.95C117.66 10.19 118.13 8.74 119.3 8.65L124.7 8.21L126.78 3.21L126.78 3.21Z" fill="#FF8C47" fill-opacity="1.000000" fill-rule="evenodd"/>
	</g>
</svg>
